<mxfile host="app.diagrams.net" agent="Mozilla/5.0 (X11; Linux x86_64; rv:132.0) Gecko/20100101 Firefox/132.0" version="24.8.3">
  <diagram name="Page-1" id="qCijwoyrny1ETweRsnoL">
    <mxGraphModel dx="3269" dy="866" grid="1" gridSize="10" guides="1" tooltips="1" connect="1" arrows="1" fold="1" page="1" pageScale="1" pageWidth="827" pageHeight="1169" math="0" shadow="0">
      <root>
        <mxCell id="0" />
        <mxCell id="1" parent="0" />
        <mxCell id="RSILQNOSzQXD8C6052Cg-1" value="" style="shape=flexArrow;endArrow=classic;html=1;rounded=0;exitX=1;exitY=0.75;exitDx=0;exitDy=0;entryX=0;entryY=0.75;entryDx=0;entryDy=0;fillColor=#f8cecc;strokeColor=#b85450;" parent="1" source="RSILQNOSzQXD8C6052Cg-5" target="RSILQNOSzQXD8C6052Cg-7" edge="1">
          <mxGeometry width="50" height="50" relative="1" as="geometry">
            <mxPoint x="-190" y="1120" as="sourcePoint" />
            <mxPoint x="-140" y="1070" as="targetPoint" />
          </mxGeometry>
        </mxCell>
        <mxCell id="RSILQNOSzQXD8C6052Cg-2" value="" style="shape=flexArrow;endArrow=classic;html=1;rounded=0;exitX=0;exitY=0.25;exitDx=0;exitDy=0;entryX=1;entryY=0.25;entryDx=0;entryDy=0;fillColor=default;" parent="1" source="RSILQNOSzQXD8C6052Cg-7" target="RSILQNOSzQXD8C6052Cg-5" edge="1">
          <mxGeometry width="50" height="50" relative="1" as="geometry">
            <mxPoint x="-360" y="1170" as="sourcePoint" />
            <mxPoint x="-310" y="1120" as="targetPoint" />
          </mxGeometry>
        </mxCell>
        <mxCell id="RSILQNOSzQXD8C6052Cg-3" value="" style="shape=flexArrow;endArrow=classic;html=1;rounded=0;exitX=1;exitY=0.5;exitDx=0;exitDy=0;entryX=0;entryY=0.5;entryDx=0;entryDy=0;fillColor=#d5e8d4;strokeColor=#82b366;" parent="1" source="RSILQNOSzQXD8C6052Cg-5" target="RSILQNOSzQXD8C6052Cg-7" edge="1">
          <mxGeometry width="50" height="50" relative="1" as="geometry">
            <mxPoint x="-190" y="1120" as="sourcePoint" />
            <mxPoint x="-140" y="1070" as="targetPoint" />
          </mxGeometry>
        </mxCell>
        <mxCell id="RSILQNOSzQXD8C6052Cg-4" value="Oui, le token est valide. Cet utilisateur est authentifié &lt;br&gt;et a les droits nécessaires pour accéder aux ressources demandées." style="edgeLabel;html=1;align=center;verticalAlign=middle;resizable=0;points=[];labelBackgroundColor=#CCFFCC;fontSize=18;" parent="RSILQNOSzQXD8C6052Cg-3" vertex="1" connectable="0">
          <mxGeometry x="0.2884" y="3" relative="1" as="geometry">
            <mxPoint x="-76" y="-4" as="offset" />
          </mxGeometry>
        </mxCell>
        <mxCell id="RSILQNOSzQXD8C6052Cg-5" value="&lt;div style=&quot;font-size: 33px;&quot;&gt;&lt;font style=&quot;font-size: 33px;&quot;&gt;&lt;b style=&quot;font-size: 33px;&quot;&gt;KeycloakSecurity 8181&lt;/b&gt;&lt;/font&gt;&lt;/div&gt;" style="rounded=1;whiteSpace=wrap;html=1;fillColor=#e1d5e7;strokeColor=#9673a6;verticalAlign=top;fontSize=33;" parent="1" vertex="1">
          <mxGeometry x="-1590" y="330" width="640" height="370" as="geometry" />
        </mxCell>
        <mxCell id="RSILQNOSzQXD8C6052Cg-6" value="" style="rounded=1;whiteSpace=wrap;html=1;" parent="1" vertex="1">
          <mxGeometry x="-1580" y="420" width="240" height="180" as="geometry" />
        </mxCell>
        <mxCell id="RSILQNOSzQXD8C6052Cg-7" value="&lt;b&gt;&lt;font style=&quot;font-size: 36px;&quot;&gt;Gateway&lt;br&gt;&lt;/font&gt;&lt;/b&gt;&lt;div&gt;&lt;b&gt;&lt;font style=&quot;font-size: 36px;&quot;&gt;9000&lt;/font&gt;&lt;/b&gt;&lt;/div&gt;" style="rounded=1;whiteSpace=wrap;html=1;fillColor=#fff2cc;strokeColor=#d6b656;" parent="1" vertex="1">
          <mxGeometry x="-350" y="200" width="230" height="720" as="geometry" />
        </mxCell>
        <mxCell id="RSILQNOSzQXD8C6052Cg-8" value="&lt;font style=&quot;font-size: 24px;&quot;&gt;&lt;b&gt;Product 8080&lt;/b&gt;&lt;/font&gt;" style="rounded=1;whiteSpace=wrap;html=1;fillColor=#dae8fc;strokeColor=#6c8ebf;align=center;" parent="1" vertex="1">
          <mxGeometry x="40" y="227" width="400" height="100" as="geometry" />
        </mxCell>
        <mxCell id="RSILQNOSzQXD8C6052Cg-9" value="" style="strokeWidth=2;html=1;shape=mxgraph.flowchart.database;whiteSpace=wrap;" parent="1" vertex="1">
          <mxGeometry x="603" y="477" width="130" height="170" as="geometry" />
        </mxCell>
        <mxCell id="RSILQNOSzQXD8C6052Cg-10" value="" style="shape=image;verticalLabelPosition=bottom;labelBackgroundColor=default;verticalAlign=top;aspect=fixed;imageAspect=0;image=https://cdn-icons-png.flaticon.com/512/5968/5968313.png;" parent="1" vertex="1">
          <mxGeometry x="632" y="547" width="72" height="72" as="geometry" />
        </mxCell>
        <mxCell id="RSILQNOSzQXD8C6052Cg-11" value="" style="strokeWidth=2;html=1;shape=mxgraph.flowchart.database;whiteSpace=wrap;" parent="1" vertex="1">
          <mxGeometry x="603" y="192" width="130" height="170" as="geometry" />
        </mxCell>
        <mxCell id="RSILQNOSzQXD8C6052Cg-12" value="" style="dashed=0;outlineConnect=0;html=1;align=center;labelPosition=center;verticalLabelPosition=bottom;verticalAlign=top;shape=mxgraph.weblogos.mongodb" parent="1" vertex="1">
          <mxGeometry x="647.4" y="255.8" width="41.2" height="86.2" as="geometry" />
        </mxCell>
        <mxCell id="RSILQNOSzQXD8C6052Cg-13" value="" style="shape=flexArrow;endArrow=classic;html=1;rounded=0;exitX=1;exitY=0.5;exitDx=0;exitDy=0;fillColor=#f5f5f5;strokeColor=#666666;" parent="1" source="RSILQNOSzQXD8C6052Cg-8" target="RSILQNOSzQXD8C6052Cg-11" edge="1">
          <mxGeometry width="50" height="50" relative="1" as="geometry">
            <mxPoint x="346" y="472" as="sourcePoint" />
            <mxPoint x="396" y="422" as="targetPoint" />
          </mxGeometry>
        </mxCell>
        <mxCell id="RSILQNOSzQXD8C6052Cg-14" value="&lt;font style=&quot;font-size: 24px;&quot;&gt;&lt;b&gt;Order 8081&lt;br&gt;&lt;/b&gt;&lt;/font&gt;" style="rounded=1;whiteSpace=wrap;html=1;fillColor=#d5e8d4;strokeColor=#82b366;" parent="1" vertex="1">
          <mxGeometry x="40" y="512" width="400" height="100" as="geometry" />
        </mxCell>
        <mxCell id="RSILQNOSzQXD8C6052Cg-15" value="" style="shape=flexArrow;endArrow=classic;html=1;rounded=0;exitX=1;exitY=0.5;exitDx=0;exitDy=0;entryX=0;entryY=0.5;entryDx=0;entryDy=0;entryPerimeter=0;fillColor=#f5f5f5;strokeColor=#666666;" parent="1" source="RSILQNOSzQXD8C6052Cg-14" target="RSILQNOSzQXD8C6052Cg-9" edge="1">
          <mxGeometry width="50" height="50" relative="1" as="geometry">
            <mxPoint x="346" y="540" as="sourcePoint" />
            <mxPoint x="396" y="490" as="targetPoint" />
          </mxGeometry>
        </mxCell>
        <mxCell id="RSILQNOSzQXD8C6052Cg-16" value="" style="strokeWidth=2;html=1;shape=mxgraph.flowchart.database;whiteSpace=wrap;" parent="1" vertex="1">
          <mxGeometry x="603" y="760" width="130" height="170" as="geometry" />
        </mxCell>
        <mxCell id="RSILQNOSzQXD8C6052Cg-17" value="" style="shape=image;verticalLabelPosition=bottom;labelBackgroundColor=default;verticalAlign=top;aspect=fixed;imageAspect=0;image=https://cdn-icons-png.flaticon.com/512/5968/5968313.png;" parent="1" vertex="1">
          <mxGeometry x="632" y="830" width="72" height="72" as="geometry" />
        </mxCell>
        <mxCell id="RSILQNOSzQXD8C6052Cg-18" value="&lt;div&gt;&lt;font style=&quot;font-size: 24px;&quot;&gt;&lt;b&gt;Inventory 8082&lt;/b&gt;&lt;/font&gt;&lt;/div&gt;" style="rounded=1;whiteSpace=wrap;html=1;fillColor=#f8cecc;strokeColor=#b85450;" parent="1" vertex="1">
          <mxGeometry x="40" y="795" width="400" height="100" as="geometry" />
        </mxCell>
        <mxCell id="RSILQNOSzQXD8C6052Cg-19" value="" style="shape=flexArrow;endArrow=classic;html=1;rounded=0;exitX=1;exitY=0.5;exitDx=0;exitDy=0;entryX=0;entryY=0.5;entryDx=0;entryDy=0;entryPerimeter=0;fillColor=#f5f5f5;strokeColor=#666666;" parent="1" source="RSILQNOSzQXD8C6052Cg-18" target="RSILQNOSzQXD8C6052Cg-16" edge="1">
          <mxGeometry width="50" height="50" relative="1" as="geometry">
            <mxPoint x="346" y="823" as="sourcePoint" />
            <mxPoint x="396" y="773" as="targetPoint" />
          </mxGeometry>
        </mxCell>
        <mxCell id="RSILQNOSzQXD8C6052Cg-20" value="&lt;font style=&quot;font-size: 36px;&quot;&gt;27017&lt;/font&gt;" style="shape=image;html=1;verticalAlign=top;verticalLabelPosition=bottom;labelBackgroundColor=#ffffff;imageAspect=0;aspect=fixed;image=https://cdn1.iconfinder.com/data/icons/unicons-line-vol-3/24/docker-128.png" parent="1" vertex="1">
          <mxGeometry x="688.6" y="312" width="100" height="100" as="geometry" />
        </mxCell>
        <mxCell id="RSILQNOSzQXD8C6052Cg-21" value="" style="shape=image;html=1;verticalAlign=top;verticalLabelPosition=bottom;labelBackgroundColor=#ffffff;imageAspect=0;aspect=fixed;image=https://cdn1.iconfinder.com/data/icons/unicons-line-vol-3/24/docker-128.png" parent="1" vertex="1">
          <mxGeometry x="688.6" y="585" width="100" height="100" as="geometry" />
        </mxCell>
        <mxCell id="RSILQNOSzQXD8C6052Cg-22" value="" style="shape=image;html=1;verticalAlign=top;verticalLabelPosition=bottom;labelBackgroundColor=#ffffff;imageAspect=0;aspect=fixed;image=https://cdn1.iconfinder.com/data/icons/unicons-line-vol-3/24/docker-128.png" parent="1" vertex="1">
          <mxGeometry x="688.6" y="870" width="100" height="100" as="geometry" />
        </mxCell>
        <mxCell id="RSILQNOSzQXD8C6052Cg-23" value="" style="shape=flexArrow;endArrow=classic;html=1;rounded=0;exitX=0.75;exitY=1;exitDx=0;exitDy=0;entryX=0.75;entryY=0;entryDx=0;entryDy=0;" parent="1" source="RSILQNOSzQXD8C6052Cg-14" target="RSILQNOSzQXD8C6052Cg-18" edge="1">
          <mxGeometry width="50" height="50" relative="1" as="geometry">
            <mxPoint x="300" y="690" as="sourcePoint" />
            <mxPoint x="350" y="640" as="targetPoint" />
          </mxGeometry>
        </mxCell>
        <mxCell id="RSILQNOSzQXD8C6052Cg-24" value="Request à 8082/api/inventory&lt;br style=&quot;font-size: 16px;&quot;&gt;L&#39;item X avec la qte Y est il dispo ?" style="edgeLabel;html=1;align=center;verticalAlign=middle;resizable=0;points=[];fontSize=16;" parent="RSILQNOSzQXD8C6052Cg-23" vertex="1" connectable="0">
          <mxGeometry x="-0.0894" y="-1" relative="1" as="geometry">
            <mxPoint as="offset" />
          </mxGeometry>
        </mxCell>
        <mxCell id="RSILQNOSzQXD8C6052Cg-25" value="" style="shape=flexArrow;endArrow=classic;html=1;rounded=0;exitX=0.25;exitY=0;exitDx=0;exitDy=0;entryX=0.25;entryY=1;entryDx=0;entryDy=0;" parent="1" source="RSILQNOSzQXD8C6052Cg-18" target="RSILQNOSzQXD8C6052Cg-14" edge="1">
          <mxGeometry width="50" height="50" relative="1" as="geometry">
            <mxPoint x="300" y="690" as="sourcePoint" />
            <mxPoint x="350" y="640" as="targetPoint" />
          </mxGeometry>
        </mxCell>
        <mxCell id="RSILQNOSzQXD8C6052Cg-26" value="Réponse &lt;br style=&quot;font-size: 16px;&quot;&gt;Oui/Non" style="edgeLabel;html=1;align=center;verticalAlign=middle;resizable=0;points=[];fontSize=16;" parent="RSILQNOSzQXD8C6052Cg-25" vertex="1" connectable="0">
          <mxGeometry x="-0.1037" y="-2" relative="1" as="geometry">
            <mxPoint x="2" y="-10" as="offset" />
          </mxGeometry>
        </mxCell>
        <mxCell id="RSILQNOSzQXD8C6052Cg-27" value="" style="image;aspect=fixed;html=1;points=[];align=center;fontSize=12;image=img/lib/azure2/compute/Azure_Spring_Cloud.svg;" parent="1" vertex="1">
          <mxGeometry x="-319" y="255.8" width="168" height="168" as="geometry" />
        </mxCell>
        <mxCell id="RSILQNOSzQXD8C6052Cg-28" value="" style="shape=flexArrow;endArrow=classic;html=1;rounded=0;exitX=1;exitY=0.25;exitDx=0;exitDy=0;entryX=0;entryY=0.5;entryDx=0;entryDy=0;edgeStyle=orthogonalEdgeStyle;startArrow=block;" parent="1" source="RSILQNOSzQXD8C6052Cg-7" target="RSILQNOSzQXD8C6052Cg-8" edge="1">
          <mxGeometry width="50" height="50" relative="1" as="geometry">
            <mxPoint x="160" y="630" as="sourcePoint" />
            <mxPoint x="210" y="580" as="targetPoint" />
          </mxGeometry>
        </mxCell>
        <mxCell id="RSILQNOSzQXD8C6052Cg-29" value="" style="shape=flexArrow;endArrow=classic;html=1;rounded=0;exitX=1;exitY=0.5;exitDx=0;exitDy=0;entryX=0;entryY=0.5;entryDx=0;entryDy=0;" parent="1" source="RSILQNOSzQXD8C6052Cg-7" target="RSILQNOSzQXD8C6052Cg-14" edge="1">
          <mxGeometry width="50" height="50" relative="1" as="geometry">
            <mxPoint x="-110" y="409" as="sourcePoint" />
            <mxPoint x="50" y="287" as="targetPoint" />
          </mxGeometry>
        </mxCell>
        <mxCell id="RSILQNOSzQXD8C6052Cg-30" value="" style="shape=flexArrow;endArrow=classic;html=1;rounded=0;exitX=1;exitY=0.75;exitDx=0;exitDy=0;entryX=0;entryY=0.5;entryDx=0;entryDy=0;edgeStyle=orthogonalEdgeStyle;startArrow=block;" parent="1" source="RSILQNOSzQXD8C6052Cg-7" target="RSILQNOSzQXD8C6052Cg-18" edge="1">
          <mxGeometry width="50" height="50" relative="1" as="geometry">
            <mxPoint x="-100" y="419" as="sourcePoint" />
            <mxPoint x="60" y="297" as="targetPoint" />
          </mxGeometry>
        </mxCell>
        <mxCell id="RSILQNOSzQXD8C6052Cg-31" value="&lt;font style=&quot;font-size: 36px;&quot;&gt;27017&lt;/font&gt;" style="text;html=1;align=center;verticalAlign=middle;resizable=0;points=[];autosize=1;strokeColor=none;fillColor=none;" parent="1" vertex="1">
          <mxGeometry x="608" y="195.8" width="120" height="60" as="geometry" />
        </mxCell>
        <mxCell id="RSILQNOSzQXD8C6052Cg-32" value="&lt;font style=&quot;font-size: 36px;&quot;&gt;3306&lt;/font&gt;" style="text;html=1;align=center;verticalAlign=middle;resizable=0;points=[];autosize=1;strokeColor=none;fillColor=none;" parent="1" vertex="1">
          <mxGeometry x="618" y="477" width="100" height="60" as="geometry" />
        </mxCell>
        <mxCell id="RSILQNOSzQXD8C6052Cg-33" value="&lt;font style=&quot;font-size: 36px;&quot;&gt;3306&lt;/font&gt;" style="text;html=1;align=center;verticalAlign=middle;resizable=0;points=[];autosize=1;strokeColor=none;fillColor=none;" parent="1" vertex="1">
          <mxGeometry x="618" y="760" width="100" height="60" as="geometry" />
        </mxCell>
        <mxCell id="RSILQNOSzQXD8C6052Cg-34" value="&lt;font style=&quot;font-size: 36px;&quot;&gt;3306&lt;/font&gt;" style="text;html=1;align=center;verticalAlign=middle;resizable=0;points=[];autosize=1;strokeColor=none;fillColor=none;" parent="1" vertex="1">
          <mxGeometry x="688.6" y="665" width="100" height="60" as="geometry" />
        </mxCell>
        <mxCell id="RSILQNOSzQXD8C6052Cg-35" value="&lt;font style=&quot;font-size: 36px;&quot;&gt;3307&lt;/font&gt;" style="text;html=1;align=center;verticalAlign=middle;resizable=0;points=[];autosize=1;strokeColor=none;fillColor=none;" parent="1" vertex="1">
          <mxGeometry x="688.6" y="960" width="100" height="60" as="geometry" />
        </mxCell>
        <mxCell id="RSILQNOSzQXD8C6052Cg-36" value="" style="shape=image;html=1;verticalAlign=top;verticalLabelPosition=bottom;labelBackgroundColor=#ffffff;imageAspect=0;aspect=fixed;image=https://cdn1.iconfinder.com/data/icons/unicons-line-vol-3/24/docker-128.png" parent="1" vertex="1">
          <mxGeometry x="-1400" y="530" width="100" height="100" as="geometry" />
        </mxCell>
        <mxCell id="RSILQNOSzQXD8C6052Cg-37" value="&lt;font style=&quot;font-size: 36px;&quot;&gt;8080&lt;/font&gt;" style="text;html=1;align=center;verticalAlign=middle;resizable=0;points=[];autosize=1;strokeColor=none;fillColor=none;" parent="1" vertex="1">
          <mxGeometry x="-1400" y="610" width="100" height="60" as="geometry" />
        </mxCell>
        <mxCell id="RSILQNOSzQXD8C6052Cg-38" value="" style="shape=image;verticalLabelPosition=bottom;labelBackgroundColor=default;verticalAlign=top;aspect=fixed;imageAspect=0;image=https://landscape.cncf.io/logos/e7ec76aed9cec7e65927f9f8cf4e675d49e79154c45c504a5cd6da1fdaecfc2d.svg;" parent="1" vertex="1">
          <mxGeometry x="-1560" y="450" width="142.35" height="90" as="geometry" />
        </mxCell>
        <mxCell id="RSILQNOSzQXD8C6052Cg-39" value="" style="strokeWidth=2;html=1;shape=mxgraph.flowchart.database;whiteSpace=wrap;" parent="1" vertex="1">
          <mxGeometry x="-1190" y="410" width="130" height="170" as="geometry" />
        </mxCell>
        <mxCell id="RSILQNOSzQXD8C6052Cg-40" value="" style="shape=image;verticalLabelPosition=bottom;labelBackgroundColor=default;verticalAlign=top;aspect=fixed;imageAspect=0;image=https://cdn-icons-png.flaticon.com/512/5968/5968313.png;" parent="1" vertex="1">
          <mxGeometry x="-1161" y="480" width="72" height="72" as="geometry" />
        </mxCell>
        <mxCell id="RSILQNOSzQXD8C6052Cg-41" value="" style="shape=image;html=1;verticalAlign=top;verticalLabelPosition=bottom;labelBackgroundColor=#ffffff;imageAspect=0;aspect=fixed;image=https://cdn1.iconfinder.com/data/icons/unicons-line-vol-3/24/docker-128.png" parent="1" vertex="1">
          <mxGeometry x="-1104.4" y="520" width="100" height="100" as="geometry" />
        </mxCell>
        <mxCell id="RSILQNOSzQXD8C6052Cg-42" value="&lt;font style=&quot;font-size: 36px;&quot;&gt;3306&lt;/font&gt;" style="text;html=1;align=center;verticalAlign=middle;resizable=0;points=[];autosize=1;strokeColor=none;fillColor=none;" parent="1" vertex="1">
          <mxGeometry x="-1175" y="410" width="100" height="60" as="geometry" />
        </mxCell>
        <mxCell id="RSILQNOSzQXD8C6052Cg-43" value="" style="shape=flexArrow;endArrow=classic;startArrow=classic;html=1;rounded=0;exitX=1;exitY=0.5;exitDx=0;exitDy=0;entryX=0;entryY=0.5;entryDx=0;entryDy=0;entryPerimeter=0;" parent="1" source="RSILQNOSzQXD8C6052Cg-38" target="RSILQNOSzQXD8C6052Cg-39" edge="1">
          <mxGeometry width="100" height="100" relative="1" as="geometry">
            <mxPoint x="-1070" y="500" as="sourcePoint" />
            <mxPoint x="-970" y="400" as="targetPoint" />
          </mxGeometry>
        </mxCell>
        <mxCell id="RSILQNOSzQXD8C6052Cg-44" value=" J’ai une requête d’un client ici. &lt;br&gt;Est-ce que tu peux vérifier son identité ?" style="edgeLabel;html=1;align=center;verticalAlign=middle;resizable=0;points=[];fontSize=18;" parent="1" vertex="1" connectable="0">
          <mxGeometry x="-670.00402701052" y="409.99964419602907" as="geometry" />
        </mxCell>
        <mxCell id="RSILQNOSzQXD8C6052Cg-45" value="Il semble que ce token soit soit invalide ou expiré,&lt;br&gt; en tout cas je ne peux pas authentifier ce client" style="edgeLabel;html=1;align=center;verticalAlign=middle;resizable=0;points=[];labelBackgroundColor=#FF6666;fontSize=18;" parent="1" vertex="1" connectable="0">
          <mxGeometry x="-679.9956764641131" y="665.003344078425" as="geometry" />
        </mxCell>
        <mxCell id="RSILQNOSzQXD8C6052Cg-46" value="" style="shape=image;verticalLabelPosition=bottom;labelBackgroundColor=default;verticalAlign=top;aspect=fixed;imageAspect=0;image=https://static-00.iconduck.com/assets.00/swagger-icon-2048x2048-563qbzey.png;" parent="1" vertex="1">
          <mxGeometry x="60" y="245.5" width="63" height="63" as="geometry" />
        </mxCell>
        <mxCell id="RSILQNOSzQXD8C6052Cg-47" value="" style="shape=image;verticalLabelPosition=bottom;labelBackgroundColor=default;verticalAlign=top;aspect=fixed;imageAspect=0;image=https://static-00.iconduck.com/assets.00/swagger-icon-2048x2048-563qbzey.png;" parent="1" vertex="1">
          <mxGeometry x="60" y="530.5" width="63" height="63" as="geometry" />
        </mxCell>
        <mxCell id="RSILQNOSzQXD8C6052Cg-48" value="" style="shape=image;verticalLabelPosition=bottom;labelBackgroundColor=default;verticalAlign=top;aspect=fixed;imageAspect=0;image=https://static-00.iconduck.com/assets.00/swagger-icon-2048x2048-563qbzey.png;" parent="1" vertex="1">
          <mxGeometry x="60" y="813.5" width="63" height="63" as="geometry" />
        </mxCell>
        <mxCell id="zy6fxM55ajnQuSFDIqDA-1" value="Documentation&#xa;Centralisée" style="shape=image;verticalLabelPosition=bottom;labelBackgroundColor=none;verticalAlign=top;aspect=fixed;imageAspect=0;image=https://static-00.iconduck.com/assets.00/swagger-icon-2048x2048-563qbzey.png;fontSize=24;" vertex="1" parent="1">
          <mxGeometry x="-319" y="630" width="163" height="163" as="geometry" />
        </mxCell>
      </root>
    </mxGraphModel>
  </diagram>
</mxfile>
